<?xml version="1.0" standalone="no"?>
<!DOCTYPE svg PUBLIC "-//W3C//DTD SVG 20010904//EN"
 "http://www.w3.org/TR/2001/REC-SVG-20010904/DTD/svg10.dtd">
<svg version="1.0" xmlns="http://www.w3.org/2000/svg"
 width="16.000000pt" height="16.000000pt" viewBox="0 0 16.000000 16.000000"
 preserveAspectRatio="xMidYMid meet">
<metadata>
Created by potrace 1.11, written by Peter Selinger 2001-2013
</metadata>
<g transform="translate(0.000000,16.000000) scale(0.006154,-0.006154)"
fill="#000000" stroke="none">
<path d="M395 2003 c4 -186 8 -410 10 -498 2 -88 4 -289 4 -447 1 -163 5 -288
10 -288 5 0 38 -17 72 -38 35 -22 84 -50 109 -64 25 -14 86 -49 135 -78 50
-29 108 -62 130 -75 22 -12 131 -75 242 -139 183 -106 204 -116 225 -105 19
10 512 294 598 344 14 8 81 47 150 87 69 39 127 72 128 74 3 2 5 983 3 1046
-1 14 -10 16 -58 13 -32 -2 -119 -7 -193 -10 -133 -6 -160 -7 -435 -21 -77 -3
-147 -6 -155 -6 -9 0 -114 58 -235 127 -176 102 -603 340 -723 404 l-24 13 7
-339z"/>
</g>
</svg>
