<?xml version="1.0" standalone="no"?>
<!DOCTYPE svg PUBLIC "-//W3C//DTD SVG 20010904//EN"
 "http://www.w3.org/TR/2001/REC-SVG-20010904/DTD/svg10.dtd">
<svg version="1.0" xmlns="http://www.w3.org/2000/svg"
 width="16.000000pt" height="16.000000pt" viewBox="0 0 16.000000 16.000000"
 preserveAspectRatio="xMidYMid meet">
<metadata>
Created by potrace 1.11, written by Peter Selinger 2001-2013
</metadata>
<g transform="translate(0.000000,16.000000) scale(0.001493,-0.001493)"
fill="#000000" stroke="none">
<path d="M5315 10707 c-11 -8 -36 -23 -55 -34 -74 -41 -127 -72 -190 -108 -36
-21 -90 -52 -120 -68 -30 -17 -57 -33 -60 -36 -3 -3 -26 -17 -52 -31 -27 -13
-48 -28 -48 -33 0 -4 -4 -6 -9 -3 -5 3 -19 -2 -32 -12 -13 -10 -37 -26 -54
-34 -64 -32 -130 -72 -133 -80 -2 -4 -12 -8 -22 -8 -10 0 -20 -4 -22 -8 -1 -4
-50 -34 -108 -66 -58 -33 -113 -66 -122 -74 -10 -8 -18 -12 -18 -9 0 4 -8 0
-17 -8 -10 -8 -21 -15 -25 -15 -5 0 -32 -15 -60 -33 -29 -18 -70 -41 -90 -52
-21 -11 -38 -23 -38 -28 0 -4 -4 -6 -9 -3 -5 3 -14 -1 -21 -9 -7 -8 -16 -15
-20 -15 -7 0 -120 -63 -180 -100 -8 -5 -37 -21 -65 -36 -27 -15 -52 -30 -55
-33 -3 -4 -21 -15 -40 -24 -19 -10 -42 -22 -50 -27 -65 -40 -153 -90 -170 -95
-11 -3 -20 -11 -20 -16 0 -5 -5 -9 -10 -9 -6 0 -75 -37 -153 -83 -78 -46 -149
-86 -157 -90 -8 -4 -33 -18 -55 -32 -22 -14 -49 -30 -60 -35 -11 -5 -38 -21
-60 -34 -22 -14 -51 -31 -65 -39 -14 -7 -43 -24 -65 -37 -22 -13 -51 -30 -65
-37 -14 -8 -38 -23 -55 -33 -16 -11 -37 -23 -45 -27 -13 -6 -193 -110 -230
-133 -30 -19 -165 -95 -175 -99 -5 -2 -12 -7 -15 -10 -3 -3 -23 -15 -45 -26
-22 -11 -42 -22 -45 -25 -5 -6 -62 -39 -155 -90 -33 -18 -62 -36 -65 -39 -3
-3 -18 -13 -35 -21 -16 -8 -36 -21 -43 -27 -7 -7 -19 -13 -26 -13 -8 0 -19 -7
-26 -15 -7 -9 -15 -13 -18 -11 -2 3 -19 -5 -36 -17 -48 -34 -70 -47 -88 -53
-10 -4 -18 -11 -18 -16 0 -5 -4 -6 -10 -3 -5 3 -10 1 -10 -5 0 -6 -4 -8 -10
-5 -5 3 -10 1 -10 -4 0 -6 -5 -11 -10 -11 -6 0 -27 -11 -48 -24 -20 -12 -41
-23 -46 -24 -5 0 -12 -4 -15 -9 -8 -11 -61 -43 -83 -50 -10 -3 -18 -9 -18 -13
0 -6 -37 -21 -49 -19 -2 0 -7 -4 -10 -9 -3 -6 -33 -25 -66 -43 -33 -18 -71
-40 -84 -51 -13 -10 -28 -18 -32 -18 -5 0 -33 -16 -64 -35 -30 -20 -55 -32
-55 -28 0 4 -4 3 -8 -3 -4 -6 -60 -41 -124 -78 l-118 -68 0 -2698 0 -2698 137
-80 c76 -44 154 -89 173 -101 19 -11 45 -25 57 -30 11 -5 24 -15 28 -21 3 -5
10 -8 15 -5 5 3 14 -1 22 -8 13 -13 135 -87 143 -87 3 0 34 -18 70 -40 36 -22
67 -40 70 -40 3 0 28 -15 57 -34 29 -18 76 -45 103 -60 28 -15 64 -35 80 -45
17 -10 46 -28 65 -39 19 -12 59 -33 87 -49 29 -15 53 -31 53 -35 0 -4 5 -8 11
-8 6 0 70 -34 142 -77 73 -42 147 -84 165 -95 55 -31 93 -53 221 -127 68 -39
127 -71 132 -71 5 0 9 -4 9 -9 0 -5 8 -11 18 -14 22 -7 93 -49 110 -65 7 -6
20 -12 28 -12 8 0 14 -4 14 -10 0 -5 9 -10 20 -10 11 0 20 -3 20 -8 0 -4 34
-25 75 -47 41 -22 75 -43 75 -47 0 -5 5 -8 10 -8 6 0 35 -15 66 -32 31 -18 82
-48 113 -66 31 -18 64 -35 74 -39 9 -3 17 -10 17 -15 0 -5 5 -6 10 -3 6 3 10
2 10 -2 0 -5 19 -19 43 -31 23 -12 58 -32 77 -44 19 -11 55 -31 79 -44 24 -13
49 -28 55 -33 6 -4 36 -22 67 -39 32 -16 68 -37 80 -45 50 -32 115 -68 132
-74 9 -3 17 -9 17 -14 0 -5 4 -9 9 -9 5 0 65 -32 133 -71 67 -39 139 -80 158
-91 125 -72 176 -102 180 -107 3 -3 10 -7 17 -8 7 -2 37 -19 68 -38 30 -20 63
-39 73 -42 9 -4 40 -21 67 -38 28 -18 70 -43 95 -57 87 -48 126 -71 217 -124
50 -30 96 -54 101 -54 6 0 12 -4 14 -8 3 -8 39 -29 158 -95 30 -16 62 -36 71
-43 8 -8 18 -14 22 -14 4 0 44 -23 91 -50 94 -55 115 -59 166 -30 19 11 47 25
63 31 15 6 27 14 27 18 0 3 15 13 33 21 17 7 37 18 42 22 23 19 195 116 195
110 0 -4 4 -2 8 3 7 11 40 31 132 83 25 14 59 33 75 43 49 29 136 80 200 116
33 19 130 75 215 125 85 50 173 100 195 112 22 11 42 23 45 26 3 3 52 33 110
65 58 33 107 63 108 67 2 4 8 8 13 8 6 0 54 26 107 58 53 31 111 64 127 72 17
8 36 20 43 27 7 7 18 13 23 13 6 0 26 12 44 26 19 14 37 25 40 24 3 0 32 15
64 34 32 20 62 36 65 36 4 0 12 5 19 10 22 19 215 130 226 130 6 0 11 3 11 8
0 4 14 13 31 21 16 7 28 16 25 19 -5 5 61 44 224 135 30 16 79 45 108 64 29
18 54 33 57 33 2 0 28 14 57 31 29 18 69 41 88 52 159 89 266 153 268 159 2 5
8 8 14 8 6 0 38 17 72 37 33 21 63 38 66 38 4 0 203 115 270 155 8 5 64 37
123 72 60 35 116 68 125 73 9 6 40 23 67 38 28 15 57 32 65 37 8 5 44 27 80
47 36 21 83 48 105 61 22 12 48 25 58 29 9 3 17 9 17 14 0 5 4 9 9 9 5 0 75
39 157 86 82 47 169 97 194 111 25 14 51 30 58 35 9 8 12 293 12 1363 l0 1352
-27 14 c-16 7 -44 23 -63 35 -33 20 -340 198 -406 235 -17 9 -42 23 -55 31
-13 7 -26 15 -29 18 -3 3 -20 13 -38 23 -17 9 -47 25 -64 35 -18 9 -34 20 -36
25 -2 4 -8 7 -12 7 -5 0 -33 14 -62 31 -68 41 -84 50 -258 150 -80 46 -146 87
-148 91 -2 4 -9 8 -16 8 -7 0 -33 13 -59 30 -26 16 -47 27 -47 24 0 -3 -7 2
-16 10 -8 9 -21 16 -29 16 -7 0 -15 4 -17 8 -3 9 -71 49 -213 126 -11 6 -22
13 -25 16 -10 10 -153 90 -161 90 -5 0 -9 5 -9 11 0 5 -4 8 -9 5 -5 -3 -14 1
-21 9 -7 8 -18 15 -25 15 -8 0 -15 3 -17 8 -3 7 -69 45 -115 67 -13 5 -23 13
-23 18 0 4 -6 7 -14 7 -7 0 -19 7 -26 15 -7 9 -15 13 -18 10 -3 -3 -10 -1 -16
4 -20 16 -288 171 -296 171 -5 0 -10 3 -12 8 -3 7 -37 27 -110 65 -21 10 -38
23 -38 28 0 5 -7 9 -15 9 -8 0 -46 20 -84 44 -38 25 -71 43 -74 40 -2 -2 -10
2 -17 11 -7 8 -19 15 -26 15 -8 0 -14 5 -14 10 0 6 -5 10 -11 10 -6 0 -56 27
-111 60 -56 33 -104 60 -109 60 -4 0 -9 3 -11 8 -1 4 -19 15 -38 24 -41 21
-88 48 -125 72 -14 9 -46 28 -70 42 -25 13 -64 35 -87 47 -24 13 -69 40 -100
60 -31 21 -59 37 -62 37 -5 0 -339 192 -366 210 -8 6 -22 13 -30 17 -8 3 -39
21 -68 40 -29 18 -59 33 -67 33 -8 0 -15 4 -15 9 0 8 -36 29 -117 69 -18 9
-33 20 -33 24 0 4 -4 8 -10 8 -5 0 -39 18 -75 40 -36 22 -70 40 -75 40 -6 0
-10 5 -10 10 0 6 -3 9 -7 8 -10 -3 -106 52 -115 67 -4 5 -8 7 -8 3 0 -4 -32
13 -72 37 l-72 43 -1 1329 c0 1320 0 1328 -20 1331 -11 1 -29 -4 -40 -11z"/>
</g>
</svg>
